<svg width="37" height="37" viewBox="0 0 37 37" fill="none" xmlns="http://www.w3.org/2000/svg">
<path d="M11.5416 29.25C9.57079 29.25 7.97621 30.8625 7.97621 32.8333C7.97621 34.8042 9.57079 36.4167 11.5416 36.4167C13.5125 36.4167 15.125 34.8042 15.125 32.8333C15.125 30.8625 13.5125 29.25 11.5416 29.25ZM0.791626 2.375C0.791626 3.36041 1.59788 4.16666 2.58329 4.16666H4.37496L10.825 17.7654L8.40621 22.1371C7.09829 24.5379 8.81829 27.4583 11.5416 27.4583H31.25C32.2354 27.4583 33.0416 26.6521 33.0416 25.6667C33.0416 24.6812 32.2354 23.875 31.25 23.875H11.5416L13.5125 20.2917H26.8604C28.2041 20.2917 29.3866 19.5571 29.9958 18.4462L36.41 6.81833C36.561 6.54676 36.6384 6.24047 36.6347 5.92976C36.631 5.61906 36.5462 5.31471 36.3887 5.04684C36.2312 4.77897 36.0066 4.55686 35.7369 4.40248C35.4672 4.2481 35.1619 4.16682 34.8512 4.16666H8.33454L7.13413 1.60458C6.99013 1.29875 6.76199 1.04028 6.47642 0.859414C6.19084 0.678551 5.85965 0.582786 5.52163 0.583331H2.58329C1.59788 0.583331 0.791626 1.38958 0.791626 2.375ZM29.4583 29.25C27.4875 29.25 25.8929 30.8625 25.8929 32.8333C25.8929 34.8042 27.4875 36.4167 29.4583 36.4167C31.4291 36.4167 33.0416 34.8042 33.0416 32.8333C33.0416 30.8625 31.4291 29.25 29.4583 29.25Z" fill="#78B004"/>
</svg>
