<svg width="174" height="24" viewBox="0 0 174 24" fill="none" xmlns="http://www.w3.org/2000/svg">
<path d="M15.3208 11.8467H5.28662V8.64844H15.3208V11.8467ZM16.7368 4.66895H4.01709V19H0.843262V3.09424C0.843262 2.87451 0.883952 2.66699 0.965332 2.47168C1.04671 2.27637 1.15658 2.10547 1.29492 1.95898C1.44141 1.8125 1.6123 1.69857 1.80762 1.61719C2.00293 1.53581 2.21452 1.49512 2.44238 1.49512H16.7368V4.66895ZM24.7446 19H23.3286C22.8729 19 22.3846 18.9227 21.8638 18.7681C21.3511 18.6134 20.8709 18.3612 20.4233 18.0112C19.9757 17.6532 19.6055 17.1934 19.3125 16.6318C19.0195 16.0622 18.873 15.3664 18.873 14.5444V0.225586H22.0469V14.5444C22.0469 14.9351 22.1689 15.2484 22.4131 15.4844C22.6572 15.7122 22.9624 15.8262 23.3286 15.8262H24.7446V19ZM41.1387 14.5444C41.1387 15.0897 41.0695 15.582 40.9312 16.0215C40.7928 16.4528 40.6097 16.8353 40.3818 17.1689C40.154 17.4945 39.8895 17.7752 39.5884 18.0112C39.2873 18.2391 38.9699 18.4263 38.6362 18.5728C38.3107 18.7192 37.9771 18.8291 37.6353 18.9023C37.3016 18.9674 36.9842 19 36.6831 19H30.958C30.5186 19 30.0384 18.9227 29.5176 18.7681C28.9967 18.6134 28.5125 18.3612 28.0649 18.0112C27.6255 17.6532 27.2552 17.1934 26.9541 16.6318C26.6611 16.0622 26.5146 15.3664 26.5146 14.5444V10.2476C26.5146 9.43376 26.6611 8.74609 26.9541 8.18457C27.2552 7.61491 27.6255 7.15511 28.0649 6.80518C28.5125 6.4471 28.9967 6.19076 29.5176 6.03613C30.0384 5.88151 30.5186 5.8042 30.958 5.8042H36.6831C37.4969 5.8042 38.1886 5.95068 38.7583 6.24365C39.328 6.53662 39.7878 6.9069 40.1377 7.35449C40.4876 7.79395 40.7399 8.27409 40.8945 8.79492C41.0573 9.31576 41.1387 9.79997 41.1387 10.2476V14.5444ZM37.9648 10.272C37.9648 9.83252 37.855 9.507 37.6353 9.29541C37.4155 9.08382 37.0981 8.97803 36.6831 8.97803H30.9824C30.5592 8.97803 30.2378 9.08789 30.0181 9.30762C29.7983 9.51921 29.6885 9.83252 29.6885 10.2476V14.5444C29.6885 14.9595 29.7983 15.2769 30.0181 15.4966C30.2378 15.7163 30.5592 15.8262 30.9824 15.8262H36.6831C37.1144 15.8262 37.4359 15.7163 37.6475 15.4966C37.859 15.2769 37.9648 14.9595 37.9648 14.5444V10.272ZM65.5771 5.8042C65.0726 6.93538 64.5273 8.05029 63.9414 9.14893C63.3555 10.2394 62.741 11.2729 62.0981 12.2495C61.4634 13.2261 60.8123 14.1294 60.145 14.9595C59.4777 15.7814 58.8145 16.4935 58.1553 17.0957C57.5042 17.6898 56.8654 18.1577 56.2388 18.4995C55.6203 18.8332 55.0343 19 54.481 19C54.2531 19 54.0415 18.9593 53.8462 18.8779C53.6509 18.7965 53.48 18.6867 53.3335 18.5483C53.187 18.4019 53.0731 18.231 52.9917 18.0356C52.9103 17.8403 52.8696 17.6287 52.8696 17.4009V11.4805L46.5708 18.5239C46.408 18.6867 46.229 18.8088 46.0337 18.8901C45.8465 18.9634 45.6512 19 45.4478 19C45.228 19 45.0205 18.9593 44.8252 18.8779C44.638 18.7965 44.4712 18.6867 44.3247 18.5483C44.1782 18.4019 44.0602 18.231 43.9707 18.0356C43.8893 17.8403 43.8486 17.6287 43.8486 17.4009V5.8042H47.0225V13.3237L53.3457 6.25586C53.5736 6.02799 53.8421 5.88558 54.1514 5.82861C54.4688 5.76351 54.778 5.79606 55.0791 5.92627C55.3802 6.04834 55.6162 6.24365 55.7871 6.51221C55.9661 6.77262 56.0557 7.06152 56.0557 7.37891V14.9229C56.7393 14.2637 57.3577 13.5679 57.9111 12.8354C58.4645 12.103 58.9772 11.3503 59.4492 10.5771C59.9294 9.7959 60.377 9.00651 60.792 8.20898C61.2152 7.40332 61.6261 6.60173 62.0249 5.8042H65.5771ZM80.8726 10.1743C80.8726 10.6138 80.7952 11.0898 80.6406 11.6025C80.486 12.1071 80.2337 12.5791 79.8838 13.0186C79.542 13.4499 79.0903 13.812 78.5288 14.105C77.9754 14.3979 77.3 14.5444 76.5024 14.5444H70.7773V11.5293H76.5024C76.9338 11.5293 77.2674 11.3991 77.5034 11.1387C77.7394 10.8701 77.8574 10.5405 77.8574 10.1499C77.8574 9.73486 77.7231 9.40934 77.4546 9.17334C77.1942 8.93734 76.8768 8.81934 76.5024 8.81934H70.7773C70.346 8.81934 70.0124 8.95361 69.7764 9.22217C69.5404 9.48258 69.4224 9.80811 69.4224 10.1987V14.6299C69.4224 15.0531 69.5526 15.3826 69.813 15.6187C70.0815 15.8547 70.4111 15.9727 70.8018 15.9727H76.5024V19H70.7773C70.3379 19 69.8618 18.9227 69.3491 18.7681C68.8446 18.6134 68.3726 18.3652 67.9331 18.0234C67.5018 17.6735 67.1396 17.2218 66.8467 16.6685C66.5537 16.1069 66.4072 15.4274 66.4072 14.6299V10.1743C66.4072 9.73486 66.4845 9.26286 66.6392 8.7583C66.7938 8.24561 67.042 7.7736 67.3838 7.34229C67.7337 6.90283 68.1854 6.53662 68.7388 6.24365C69.3003 5.95068 69.9798 5.8042 70.7773 5.8042H76.5024C76.9419 5.8042 77.4139 5.88151 77.9185 6.03613C78.4312 6.19076 78.9032 6.44303 79.3345 6.79297C79.7739 7.13477 80.1401 7.58643 80.4331 8.14795C80.7261 8.70133 80.8726 9.37679 80.8726 10.1743ZM94.5566 8.97803H87.4155C86.9842 8.97803 86.6587 9.08789 86.439 9.30762C86.2192 9.51921 86.1094 9.83252 86.1094 10.2476V19H82.9355V10.2476C82.9355 9.70231 83.0047 9.21403 83.1431 8.78271C83.2814 8.3514 83.4645 7.97298 83.6924 7.64746C83.9284 7.3138 84.1969 7.03304 84.498 6.80518C84.7992 6.56917 85.1125 6.37793 85.438 6.23145C85.7716 6.08496 86.1053 5.97917 86.439 5.91406C86.7808 5.84082 87.0981 5.8042 87.3911 5.8042H94.5566V8.97803ZM121.766 13.8486C121.766 14.4753 121.685 15.0409 121.522 15.5454C121.367 16.0418 121.16 16.4813 120.899 16.8638C120.639 17.2463 120.334 17.5718 119.984 17.8403C119.634 18.1089 119.272 18.3286 118.897 18.4995C118.523 18.6704 118.141 18.7965 117.75 18.8779C117.368 18.9593 117.005 19 116.664 19H104.42V15.8262H116.664C117.274 15.8262 117.746 15.6471 118.08 15.2891C118.421 14.931 118.592 14.4508 118.592 13.8486C118.592 13.5557 118.548 13.2871 118.458 13.043C118.368 12.7988 118.238 12.5872 118.067 12.4082C117.905 12.2292 117.701 12.0908 117.457 11.9932C117.221 11.8955 116.957 11.8467 116.664 11.8467H109.364C108.851 11.8467 108.298 11.7572 107.704 11.5781C107.11 11.391 106.556 11.0939 106.043 10.687C105.539 10.2801 105.116 9.74707 104.774 9.08789C104.44 8.42871 104.273 7.62305 104.273 6.6709C104.273 5.71875 104.44 4.91715 104.774 4.26611C105.116 3.60693 105.539 3.07389 106.043 2.66699C106.556 2.25195 107.11 1.95492 107.704 1.77588C108.298 1.5887 108.851 1.49512 109.364 1.49512H120.167V4.66895H109.364C108.762 4.66895 108.29 4.85205 107.948 5.21826C107.614 5.58447 107.447 6.06868 107.447 6.6709C107.447 7.28125 107.614 7.76546 107.948 8.12354C108.29 8.47347 108.762 8.64844 109.364 8.64844H116.664H116.688C117.03 8.65658 117.392 8.7054 117.774 8.79492C118.157 8.8763 118.535 9.00651 118.91 9.18555C119.292 9.36458 119.654 9.59245 119.996 9.86914C120.338 10.1377 120.639 10.4632 120.899 10.8457C121.168 11.2282 121.38 11.6676 121.534 12.1641C121.689 12.6605 121.766 13.222 121.766 13.8486ZM138.722 19H135.548V10.2476C135.548 9.83252 135.442 9.51921 135.23 9.30762C135.019 9.08789 134.701 8.97803 134.278 8.97803H128.553V5.8042H134.278C134.579 5.8042 134.897 5.84082 135.23 5.91406C135.564 5.97917 135.894 6.08496 136.219 6.23145C136.553 6.37793 136.87 6.56917 137.171 6.80518C137.472 7.03304 137.737 7.3138 137.965 7.64746C138.193 7.97298 138.376 8.3514 138.514 8.78271C138.653 9.21403 138.722 9.70231 138.722 10.2476V19ZM127.271 19H124.098V0.225586H127.271V19ZM155.982 14.5444C155.982 15.0897 155.913 15.582 155.775 16.0215C155.637 16.4528 155.453 16.8353 155.226 17.1689C154.998 17.4945 154.733 17.7752 154.432 18.0112C154.131 18.2391 153.814 18.4263 153.48 18.5728C153.154 18.7192 152.821 18.8291 152.479 18.9023C152.145 18.9674 151.828 19 151.527 19H145.802C145.362 19 144.882 18.9227 144.361 18.7681C143.84 18.6134 143.356 18.3612 142.909 18.0112C142.469 17.6532 142.099 17.1934 141.798 16.6318C141.505 16.0622 141.358 15.3664 141.358 14.5444V10.2476C141.358 9.43376 141.505 8.74609 141.798 8.18457C142.099 7.61491 142.469 7.15511 142.909 6.80518C143.356 6.4471 143.84 6.19076 144.361 6.03613C144.882 5.88151 145.362 5.8042 145.802 5.8042H151.527C152.341 5.8042 153.032 5.95068 153.602 6.24365C154.172 6.53662 154.632 6.9069 154.981 7.35449C155.331 7.79395 155.584 8.27409 155.738 8.79492C155.901 9.31576 155.982 9.79997 155.982 10.2476V14.5444ZM152.809 10.272C152.809 9.83252 152.699 9.507 152.479 9.29541C152.259 9.08382 151.942 8.97803 151.527 8.97803H145.826C145.403 8.97803 145.082 9.08789 144.862 9.30762C144.642 9.51921 144.532 9.83252 144.532 10.2476V14.5444C144.532 14.9595 144.642 15.2769 144.862 15.4966C145.082 15.7163 145.403 15.8262 145.826 15.8262H151.527C151.958 15.8262 152.28 15.7163 152.491 15.4966C152.703 15.2769 152.809 14.9595 152.809 14.5444V10.272ZM173.243 14.5444C173.243 15.0897 173.174 15.582 173.036 16.0215C172.897 16.4528 172.714 16.8353 172.486 17.1689C172.258 17.4945 171.994 17.7752 171.693 18.0112C171.392 18.2391 171.074 18.4263 170.741 18.5728C170.415 18.7192 170.086 18.8291 169.752 18.9023C169.418 18.9674 169.101 19 168.8 19H163.075V15.8262H168.8C169.223 15.8262 169.54 15.7163 169.752 15.4966C169.964 15.2769 170.069 14.9595 170.069 14.5444V10.272C170.069 9.83252 169.959 9.507 169.74 9.29541C169.528 9.08382 169.215 8.97803 168.8 8.97803H163.099C162.668 8.97803 162.342 9.08789 162.123 9.30762C161.903 9.51921 161.793 9.83252 161.793 10.2476V23.126H158.619V10.2476C158.619 9.70231 158.688 9.21403 158.827 8.78271C158.965 8.3514 159.148 7.97298 159.376 7.64746C159.612 7.3138 159.881 7.03304 160.182 6.80518C160.483 6.56917 160.796 6.37793 161.122 6.23145C161.455 6.08496 161.789 5.97917 162.123 5.91406C162.464 5.84082 162.782 5.8042 163.075 5.8042H168.8C169.345 5.8042 169.833 5.87337 170.265 6.01172C170.696 6.15007 171.074 6.33317 171.4 6.56104C171.734 6.7889 172.014 7.05339 172.242 7.35449C172.478 7.6556 172.669 7.97298 172.816 8.30664C172.962 8.63216 173.068 8.96175 173.133 9.29541C173.207 9.62907 173.243 9.94645 173.243 10.2476V14.5444Z" fill="#78B004"/>
</svg>
