<svg width="35" height="35" viewBox="0 0 35 35" fill="none" xmlns="http://www.w3.org/2000/svg">
<path d="M23.3184 24.8638L26.3284 21.8538C26.7338 21.4534 27.2467 21.1793 27.8049 21.0648C28.3631 20.9503 28.9425 21.0003 29.4728 21.2088L33.1412 22.6734C33.6771 22.891 34.1366 23.2623 34.4618 23.7405C34.787 24.2188 34.9634 24.7826 34.9687 25.3609V32.0797C34.9656 32.4731 34.8829 32.8618 34.7256 33.2225C34.5683 33.5831 34.3396 33.9081 34.0534 34.1781C33.7671 34.448 33.4292 34.6572 33.06 34.7931C32.6908 34.929 32.2979 34.9887 31.9049 34.9688C6.19901 33.3697 1.01214 11.6009 0.031201 3.2697C-0.0143348 2.86057 0.0272701 2.44645 0.153278 2.05456C0.279286 1.66267 0.486842 1.3019 0.762291 0.995986C1.03774 0.690072 1.37484 0.445947 1.75141 0.27967C2.12799 0.113393 2.5355 0.0287329 2.94714 0.0312591H9.43745C10.0166 0.0329735 10.582 0.207918 11.061 0.533592C11.5399 0.859266 11.9104 1.32078 12.1249 1.85876L13.5896 5.5272C13.805 6.05538 13.8599 6.63531 13.7476 7.19454C13.6353 7.75377 13.3607 8.2675 12.9581 8.67157L9.94807 11.6816C9.94807 11.6816 11.6815 23.4125 23.3184 24.8638Z" fill="#78B004"/>
</svg>
