<svg width="257" height="27" viewBox="0 0 257 27" fill="none" xmlns="http://www.w3.org/2000/svg">
<path d="M19.19 0.399998V6.556H13.034V27H6.916V6.556H0.76V0.399998H19.19ZM48.8134 18.83C48.8134 19.97 48.598 21.034 48.1674 22.022C47.7367 23.01 47.154 23.8713 46.4194 24.606C45.6847 25.3407 44.8234 25.9233 43.8354 26.354C42.8474 26.7847 41.7834 27 40.6434 27H36.5394C35.3994 27 34.3354 26.7847 33.3474 26.354C32.3594 25.9233 31.498 25.3407 30.7634 24.606C30.0287 23.8713 29.446 23.01 29.0154 22.022C28.5847 21.034 28.3694 19.97 28.3694 18.83V0.399998H34.4874V18.83C34.4874 19.3873 34.6774 19.8687 35.0574 20.274C35.4627 20.6793 35.9567 20.882 36.5394 20.882H40.6434C41.226 20.882 41.7074 20.6793 42.0874 20.274C42.4927 19.8687 42.6954 19.3873 42.6954 18.83V0.399998H48.8134V18.83ZM57.9827 8.57C57.9827 7.43 58.198 6.366 58.6287 5.378C59.0593 4.39 59.642 3.52867 60.3767 2.794C61.1113 2.05933 61.9727 1.47667 62.9607 1.046C63.9487 0.615332 65.0127 0.399998 66.1527 0.399998H70.2567C71.3967 0.399998 72.4607 0.615332 73.4487 1.046C74.4367 1.47667 75.298 2.05933 76.0327 2.794C76.7673 3.52867 77.35 4.39 77.7807 5.378C78.2113 6.366 78.4267 7.43 78.4267 8.57V27H72.3087V8.57C72.3087 8.01267 72.106 7.53133 71.7007 7.126C71.3207 6.72067 70.8393 6.518 70.2567 6.518H66.1527C65.57 6.518 65.076 6.72067 64.6707 7.126C64.2907 7.53133 64.1007 8.01267 64.1007 8.57V27H57.9827V8.57ZM99.8699 10.622H108.04V16.778V18.83C108.04 19.97 107.825 21.034 107.394 22.022C106.963 23.01 106.381 23.8713 105.646 24.606C104.911 25.3407 104.05 25.9233 103.062 26.354C102.074 26.7847 101.01 27 99.8699 27H95.7659C94.6259 27 93.5619 26.7847 92.5739 26.354C91.5859 25.9233 90.7246 25.3407 89.9899 24.606C89.2553 23.8713 88.6726 23.01 88.2419 22.022C87.8113 21.034 87.5959 19.97 87.5959 18.83V8.57C87.5959 7.43 87.8113 6.366 88.2419 5.378C88.6726 4.39 89.2553 3.52867 89.9899 2.794C90.7246 2.05933 91.5859 1.47667 92.5739 1.046C93.5619 0.615332 94.6259 0.399998 95.7659 0.399998H99.8699C101.01 0.399998 102.074 0.615332 103.062 1.046C104.05 1.47667 104.911 2.05933 105.646 2.794C106.381 3.52867 106.963 4.39 107.394 5.378C107.825 6.366 108.04 7.43 108.04 8.57H101.922C101.922 8.01267 101.719 7.544 101.314 7.164C100.934 6.75867 100.453 6.556 99.8699 6.556H95.7659C95.1833 6.556 94.6893 6.75867 94.2839 7.164C93.9039 7.544 93.7139 8.01267 93.7139 8.57V18.83C93.7139 19.3873 93.9039 19.8687 94.2839 20.274C94.6893 20.6793 95.1833 20.882 95.7659 20.882H99.8699C100.453 20.882 100.934 20.6793 101.314 20.274C101.719 19.8687 101.922 19.3873 101.922 18.83V16.778H99.8699V10.622ZM137.653 27H131.535V18.83C131.535 18.2473 131.333 17.766 130.927 17.386C130.547 16.9807 130.066 16.778 129.483 16.778H123.327V27H117.209V0.399998H123.327V10.622H125.379C125.962 10.622 126.443 10.432 126.823 10.052C127.229 9.64667 127.431 9.15267 127.431 8.57V0.399998H133.549V8.57C133.549 9.60867 133.385 10.5713 133.055 11.458C134.423 12.1167 135.525 13.1047 136.361 14.422C137.223 15.714 137.653 17.1833 137.653 18.83V27ZM161.149 0.399998H167.267V27H161.149V16.778H152.941V27H146.823V0.399998H152.941V10.622H161.149V0.399998ZM196.88 27H190.762L186.658 11.724L182.554 27H176.436L183.542 0.399998H183.618H189.698H189.774L196.88 27ZM206.049 8.57C206.049 7.43 206.264 6.366 206.695 5.378C207.126 4.39 207.708 3.52867 208.443 2.794C209.178 2.05933 210.039 1.47667 211.027 1.046C212.015 0.615332 213.079 0.399998 214.219 0.399998H218.323C219.463 0.399998 220.527 0.615332 221.515 1.046C222.503 1.47667 223.364 2.05933 224.099 2.794C224.834 3.52867 225.416 4.39 225.847 5.378C226.278 6.366 226.493 7.43 226.493 8.57V27H220.375V8.57C220.375 8.01267 220.172 7.53133 219.767 7.126C219.387 6.72067 218.906 6.518 218.323 6.518H214.219C213.636 6.518 213.142 6.72067 212.737 7.126C212.357 7.53133 212.167 8.01267 212.167 8.57V27H206.049V8.57ZM249.988 0.399998H256.106V27H249.988V16.778H241.78V27H235.662V0.399998H241.78V10.622H249.988V0.399998Z" fill="#78B004"/>
</svg>
