<svg width="139" height="20" viewBox="0 0 139 20" fill="none" xmlns="http://www.w3.org/2000/svg">
<path d="M12.0566 10.2773H4.0293V7.71875H12.0566V10.2773ZM13.1895 4.53516H3.01367V16H0.474609V3.27539C0.474609 3.09961 0.507161 2.93359 0.572266 2.77734C0.63737 2.62109 0.72526 2.48438 0.835938 2.36719C0.953125 2.25 1.08984 2.15885 1.24609 2.09375C1.40234 2.02865 1.57161 1.99609 1.75391 1.99609H13.1895V4.53516ZM19.5957 16H18.4629C18.0983 16 17.7077 15.9382 17.291 15.8145C16.8809 15.6908 16.4967 15.4889 16.1387 15.209C15.7806 14.9225 15.4844 14.5547 15.25 14.1055C15.0156 13.6497 14.8984 13.0931 14.8984 12.4355V0.980469H17.4375V12.4355C17.4375 12.748 17.5352 12.9987 17.7305 13.1875C17.9258 13.3698 18.1699 13.4609 18.4629 13.4609H19.5957V16ZM32.7109 12.4355C32.7109 12.8717 32.6556 13.2656 32.5449 13.6172C32.4342 13.9622 32.2878 14.2682 32.1055 14.5352C31.9232 14.7956 31.7116 15.0202 31.4707 15.209C31.2298 15.3913 30.9759 15.541 30.709 15.6582C30.4486 15.7754 30.1816 15.8633 29.9082 15.9219C29.6413 15.974 29.3874 16 29.1465 16H24.5664C24.2148 16 23.8307 15.9382 23.4141 15.8145C22.9974 15.6908 22.61 15.4889 22.252 15.209C21.9004 14.9225 21.6042 14.5547 21.3633 14.1055C21.1289 13.6497 21.0117 13.0931 21.0117 12.4355V8.99805C21.0117 8.34701 21.1289 7.79688 21.3633 7.34766C21.6042 6.89193 21.9004 6.52409 22.252 6.24414C22.61 5.95768 22.9974 5.7526 23.4141 5.62891C23.8307 5.50521 24.2148 5.44336 24.5664 5.44336H29.1465C29.7975 5.44336 30.3509 5.56055 30.8066 5.79492C31.2624 6.0293 31.6302 6.32552 31.9102 6.68359C32.1901 7.03516 32.3919 7.41927 32.5156 7.83594C32.6458 8.2526 32.7109 8.63997 32.7109 8.99805V12.4355ZM30.1719 9.01758C30.1719 8.66602 30.084 8.4056 29.9082 8.23633C29.7324 8.06706 29.4785 7.98242 29.1465 7.98242H24.5859C24.2474 7.98242 23.9902 8.07031 23.8145 8.24609C23.6387 8.41536 23.5508 8.66602 23.5508 8.99805V12.4355C23.5508 12.7676 23.6387 13.0215 23.8145 13.1973C23.9902 13.373 24.2474 13.4609 24.5859 13.4609H29.1465C29.4915 13.4609 29.7487 13.373 29.918 13.1973C30.0872 13.0215 30.1719 12.7676 30.1719 12.4355V9.01758ZM52.2617 5.44336C51.8581 6.34831 51.4219 7.24023 50.9531 8.11914C50.4844 8.99154 49.9928 9.81836 49.4785 10.5996C48.9707 11.3809 48.4499 12.1035 47.916 12.7676C47.3822 13.4251 46.8516 13.9948 46.3242 14.4766C45.8034 14.9518 45.2923 15.3262 44.791 15.5996C44.2962 15.8665 43.8275 16 43.3848 16C43.2025 16 43.0332 15.9674 42.877 15.9023C42.7207 15.8372 42.584 15.7493 42.4668 15.6387C42.3496 15.5215 42.2585 15.3848 42.1934 15.2285C42.1283 15.0723 42.0957 14.903 42.0957 14.7207V9.98438L37.0566 15.6191C36.9264 15.7493 36.7832 15.847 36.627 15.9121C36.4772 15.9707 36.321 16 36.1582 16C35.9824 16 35.8164 15.9674 35.6602 15.9023C35.5104 15.8372 35.377 15.7493 35.2598 15.6387C35.1426 15.5215 35.0482 15.3848 34.9766 15.2285C34.9115 15.0723 34.8789 14.903 34.8789 14.7207V5.44336H37.418V11.459L42.4766 5.80469C42.6589 5.6224 42.8737 5.50846 43.1211 5.46289C43.375 5.41081 43.6224 5.43685 43.8633 5.54102C44.1042 5.63867 44.293 5.79492 44.4297 6.00977C44.5729 6.2181 44.6445 6.44922 44.6445 6.70312V12.7383C45.1914 12.2109 45.6862 11.6543 46.1289 11.0684C46.5716 10.4824 46.9818 9.88021 47.3594 9.26172C47.7435 8.63672 48.1016 8.00521 48.4336 7.36719C48.7721 6.72266 49.1009 6.08138 49.4199 5.44336H52.2617ZM64.498 8.93945C64.498 9.29102 64.4362 9.67188 64.3125 10.082C64.1888 10.4857 63.987 10.8633 63.707 11.2148C63.4336 11.5599 63.0723 11.8496 62.623 12.084C62.1803 12.3184 61.64 12.4355 61.002 12.4355H56.4219V10.0234H61.002C61.347 10.0234 61.6139 9.91927 61.8027 9.71094C61.9915 9.49609 62.0859 9.23242 62.0859 8.91992C62.0859 8.58789 61.9785 8.32747 61.7637 8.13867C61.5553 7.94987 61.3014 7.85547 61.002 7.85547H56.4219C56.0768 7.85547 55.8099 7.96289 55.6211 8.17773C55.4323 8.38607 55.3379 8.64648 55.3379 8.95898V12.5039C55.3379 12.8424 55.4421 13.1061 55.6504 13.2949C55.8652 13.4837 56.1289 13.5781 56.4414 13.5781H61.002V16H56.4219C56.0703 16 55.6895 15.9382 55.2793 15.8145C54.8757 15.6908 54.498 15.4922 54.1465 15.2188C53.8014 14.9388 53.5117 14.5775 53.2773 14.1348C53.043 13.6855 52.9258 13.1419 52.9258 12.5039V8.93945C52.9258 8.58789 52.9876 8.21029 53.1113 7.80664C53.235 7.39648 53.4336 7.01888 53.707 6.67383C53.987 6.32227 54.3483 6.0293 54.791 5.79492C55.2402 5.56055 55.7839 5.44336 56.4219 5.44336H61.002C61.3535 5.44336 61.7311 5.50521 62.1348 5.62891C62.5449 5.7526 62.9225 5.95443 63.2676 6.23438C63.6191 6.50781 63.9121 6.86914 64.1465 7.31836C64.3809 7.76107 64.498 8.30143 64.498 8.93945ZM75.4453 7.98242H69.7324C69.3874 7.98242 69.127 8.07031 68.9512 8.24609C68.7754 8.41536 68.6875 8.66602 68.6875 8.99805V16H66.1484V8.99805C66.1484 8.56185 66.2038 8.17122 66.3145 7.82617C66.4251 7.48112 66.5716 7.17839 66.7539 6.91797C66.9427 6.65104 67.1576 6.42643 67.3984 6.24414C67.6393 6.05534 67.89 5.90234 68.1504 5.78516C68.4173 5.66797 68.6842 5.58333 68.9512 5.53125C69.2246 5.47266 69.4785 5.44336 69.7129 5.44336H75.4453V7.98242ZM97.2129 11.8789C97.2129 12.3802 97.1478 12.8327 97.0176 13.2363C96.8939 13.6335 96.7279 13.985 96.5195 14.291C96.3112 14.597 96.0671 14.8574 95.7871 15.0723C95.5072 15.2871 95.2174 15.4629 94.918 15.5996C94.6185 15.7363 94.3125 15.8372 94 15.9023C93.694 15.9674 93.4043 16 93.1309 16H83.3359V13.4609H93.1309C93.6191 13.4609 93.9967 13.3177 94.2637 13.0312C94.5371 12.7448 94.6738 12.3607 94.6738 11.8789C94.6738 11.6445 94.638 11.4297 94.5664 11.2344C94.4948 11.0391 94.3906 10.8698 94.2539 10.7266C94.1237 10.5833 93.9609 10.4727 93.7656 10.3945C93.5768 10.3164 93.3652 10.2773 93.1309 10.2773H87.291C86.8809 10.2773 86.4382 10.2057 85.9629 10.0625C85.4876 9.91276 85.0449 9.67513 84.6348 9.34961C84.2311 9.02409 83.8926 8.59766 83.6191 8.07031C83.3522 7.54297 83.2188 6.89844 83.2188 6.13672C83.2188 5.375 83.3522 4.73372 83.6191 4.21289C83.8926 3.68555 84.2311 3.25911 84.6348 2.93359C85.0449 2.60156 85.4876 2.36393 85.9629 2.2207C86.4382 2.07096 86.8809 1.99609 87.291 1.99609H95.9336V4.53516H87.291C86.8092 4.53516 86.4316 4.68164 86.1582 4.97461C85.8913 5.26758 85.7578 5.65495 85.7578 6.13672C85.7578 6.625 85.8913 7.01237 86.1582 7.29883C86.4316 7.57878 86.8092 7.71875 87.291 7.71875H93.1309H93.1504C93.4238 7.72526 93.7135 7.76432 94.0195 7.83594C94.3255 7.90104 94.6283 8.00521 94.9277 8.14844C95.2337 8.29167 95.5234 8.47396 95.7969 8.69531C96.0703 8.91016 96.3112 9.17057 96.5195 9.47656C96.7344 9.78255 96.9036 10.1341 97.0273 10.5312C97.151 10.9284 97.2129 11.3776 97.2129 11.8789ZM110.777 16H108.238V8.99805C108.238 8.66602 108.154 8.41536 107.984 8.24609C107.815 8.07031 107.561 7.98242 107.223 7.98242H102.643V5.44336H107.223C107.464 5.44336 107.717 5.47266 107.984 5.53125C108.251 5.58333 108.515 5.66797 108.775 5.78516C109.042 5.90234 109.296 6.05534 109.537 6.24414C109.778 6.42643 109.99 6.65104 110.172 6.91797C110.354 7.17839 110.501 7.48112 110.611 7.82617C110.722 8.17122 110.777 8.56185 110.777 8.99805V16ZM101.617 16H99.0781V0.980469H101.617V16ZM124.586 12.4355C124.586 12.8717 124.531 13.2656 124.42 13.6172C124.309 13.9622 124.163 14.2682 123.98 14.5352C123.798 14.7956 123.587 15.0202 123.346 15.209C123.105 15.3913 122.851 15.541 122.584 15.6582C122.324 15.7754 122.057 15.8633 121.783 15.9219C121.516 15.974 121.262 16 121.021 16H116.441C116.09 16 115.706 15.9382 115.289 15.8145C114.872 15.6908 114.485 15.4889 114.127 15.209C113.775 14.9225 113.479 14.5547 113.238 14.1055C113.004 13.6497 112.887 13.0931 112.887 12.4355V8.99805C112.887 8.34701 113.004 7.79688 113.238 7.34766C113.479 6.89193 113.775 6.52409 114.127 6.24414C114.485 5.95768 114.872 5.7526 115.289 5.62891C115.706 5.50521 116.09 5.44336 116.441 5.44336H121.021C121.673 5.44336 122.226 5.56055 122.682 5.79492C123.137 6.0293 123.505 6.32552 123.785 6.68359C124.065 7.03516 124.267 7.41927 124.391 7.83594C124.521 8.2526 124.586 8.63997 124.586 8.99805V12.4355ZM122.047 9.01758C122.047 8.66602 121.959 8.4056 121.783 8.23633C121.607 8.06706 121.354 7.98242 121.021 7.98242H116.461C116.122 7.98242 115.865 8.07031 115.689 8.24609C115.514 8.41536 115.426 8.66602 115.426 8.99805V12.4355C115.426 12.7676 115.514 13.0215 115.689 13.1973C115.865 13.373 116.122 13.4609 116.461 13.4609H121.021C121.367 13.4609 121.624 13.373 121.793 13.1973C121.962 13.0215 122.047 12.7676 122.047 12.4355V9.01758ZM138.395 12.4355C138.395 12.8717 138.339 13.2656 138.229 13.6172C138.118 13.9622 137.971 14.2682 137.789 14.5352C137.607 14.7956 137.395 15.0202 137.154 15.209C136.913 15.3913 136.66 15.541 136.393 15.6582C136.132 15.7754 135.868 15.8633 135.602 15.9219C135.335 15.974 135.081 16 134.84 16H130.26V13.4609H134.84C135.178 13.4609 135.432 13.373 135.602 13.1973C135.771 13.0215 135.855 12.7676 135.855 12.4355V9.01758C135.855 8.66602 135.768 8.4056 135.592 8.23633C135.423 8.06706 135.172 7.98242 134.84 7.98242H130.279C129.934 7.98242 129.674 8.07031 129.498 8.24609C129.322 8.41536 129.234 8.66602 129.234 8.99805V19.3008H126.695V8.99805C126.695 8.56185 126.751 8.17122 126.861 7.82617C126.972 7.48112 127.118 7.17839 127.301 6.91797C127.49 6.65104 127.704 6.42643 127.945 6.24414C128.186 6.05534 128.437 5.90234 128.697 5.78516C128.964 5.66797 129.231 5.58333 129.498 5.53125C129.771 5.47266 130.025 5.44336 130.26 5.44336H134.84C135.276 5.44336 135.667 5.4987 136.012 5.60938C136.357 5.72005 136.66 5.86654 136.92 6.04883C137.187 6.23112 137.411 6.44271 137.594 6.68359C137.783 6.92448 137.936 7.17839 138.053 7.44531C138.17 7.70573 138.255 7.9694 138.307 8.23633C138.365 8.50326 138.395 8.75716 138.395 8.99805V12.4355Z" fill="white"/>
</svg>
