<svg width="15" height="15" viewBox="0 0 15 15" fill="none" xmlns="http://www.w3.org/2000/svg">
<path d="M9.80027 10.4113L10.9903 9.22127C11.1506 9.06298 11.3533 8.95463 11.574 8.90936C11.7947 8.8641 12.0237 8.88387 12.2334 8.96627L13.6837 9.54533C13.8956 9.63133 14.0772 9.77812 14.2058 9.9672C14.3344 10.1563 14.4041 10.3792 14.4062 10.6078V13.2641C14.405 13.4196 14.3723 13.5733 14.3101 13.7159C14.2479 13.8584 14.1575 13.987 14.0443 14.0937C13.9312 14.2004 13.7976 14.2831 13.6516 14.3368C13.5056 14.3905 13.3503 14.4142 13.195 14.4063C3.03215 13.7741 0.981527 5.16783 0.593714 1.87408C0.575712 1.71234 0.59216 1.54861 0.641977 1.39368C0.691795 1.23875 0.773852 1.09612 0.88275 0.975175C0.991648 0.854233 1.12492 0.757718 1.2738 0.691981C1.42268 0.626243 1.58378 0.592773 1.74653 0.593772H4.31246C4.54144 0.594449 4.76497 0.663614 4.95432 0.792369C5.14366 0.921123 5.29016 1.10358 5.37496 1.31627L5.95403 2.76658C6.03916 2.9754 6.06088 3.20468 6.01647 3.42577C5.97207 3.64686 5.8635 3.84996 5.70434 4.00971L4.51434 5.19971C4.51434 5.19971 5.19965 9.83752 9.80027 10.4113Z" fill="white"/>
</svg>
