<svg width="203" height="21" viewBox="0 0 203 21" fill="none" xmlns="http://www.w3.org/2000/svg">
<path d="M15.15 -1.43051e-06V4.86H10.29V21H5.46V4.86H0.6V-1.43051e-06H15.15ZM38.5369 14.55C38.5369 15.45 38.3669 16.29 38.0269 17.07C37.6869 17.85 37.2269 18.53 36.6469 19.11C36.0669 19.69 35.3869 20.15 34.6069 20.49C33.8269 20.83 32.9869 21 32.0869 21H28.8469C27.9469 21 27.1069 20.83 26.3269 20.49C25.5469 20.15 24.8669 19.69 24.2869 19.11C23.7069 18.53 23.2469 17.85 22.9069 17.07C22.5669 16.29 22.3969 15.45 22.3969 14.55V-1.43051e-06H27.2269V14.55C27.2269 14.99 27.3769 15.37 27.6769 15.69C27.9969 16.01 28.3869 16.17 28.8469 16.17H32.0869C32.5469 16.17 32.9269 16.01 33.2269 15.69C33.5469 15.37 33.7069 14.99 33.7069 14.55V-1.43051e-06H38.5369V14.55ZM45.7758 6.45C45.7758 5.55 45.9458 4.71 46.2858 3.93C46.6258 3.15 47.0858 2.47 47.6658 1.89C48.2458 1.31 48.9258 0.85 49.7058 0.509999C50.4858 0.169999 51.3258 -1.43051e-06 52.2258 -1.43051e-06H55.4658C56.3658 -1.43051e-06 57.2058 0.169999 57.9858 0.509999C58.7658 0.85 59.4458 1.31 60.0258 1.89C60.6058 2.47 61.0658 3.15 61.4058 3.93C61.7458 4.71 61.9158 5.55 61.9158 6.45V21H57.0858V6.45C57.0858 6.01 56.9258 5.63 56.6058 5.31C56.3058 4.99 55.9258 4.83 55.4658 4.83H52.2258C51.7658 4.83 51.3758 4.99 51.0558 5.31C50.7558 5.63 50.6058 6.01 50.6058 6.45V21H45.7758V6.45ZM78.8447 8.07H85.2947V12.93V14.55C85.2947 15.45 85.1247 16.29 84.7847 17.07C84.4447 17.85 83.9847 18.53 83.4047 19.11C82.8247 19.69 82.1447 20.15 81.3647 20.49C80.5847 20.83 79.7447 21 78.8447 21H75.6047C74.7047 21 73.8647 20.83 73.0847 20.49C72.3047 20.15 71.6247 19.69 71.0447 19.11C70.4647 18.53 70.0047 17.85 69.6647 17.07C69.3247 16.29 69.1547 15.45 69.1547 14.55V6.45C69.1547 5.55 69.3247 4.71 69.6647 3.93C70.0047 3.15 70.4647 2.47 71.0447 1.89C71.6247 1.31 72.3047 0.85 73.0847 0.509999C73.8647 0.169999 74.7047 -1.43051e-06 75.6047 -1.43051e-06H78.8447C79.7447 -1.43051e-06 80.5847 0.169999 81.3647 0.509999C82.1447 0.85 82.8247 1.31 83.4047 1.89C83.9847 2.47 84.4447 3.15 84.7847 3.93C85.1247 4.71 85.2947 5.55 85.2947 6.45H80.4647C80.4647 6.01 80.3047 5.64 79.9847 5.34C79.6847 5.02 79.3047 4.86 78.8447 4.86H75.6047C75.1447 4.86 74.7547 5.02 74.4347 5.34C74.1347 5.64 73.9847 6.01 73.9847 6.45V14.55C73.9847 14.99 74.1347 15.37 74.4347 15.69C74.7547 16.01 75.1447 16.17 75.6047 16.17H78.8447C79.3047 16.17 79.6847 16.01 79.9847 15.69C80.3047 15.37 80.4647 14.99 80.4647 14.55V12.93H78.8447V8.07ZM108.674 21H103.844V14.55C103.844 14.09 103.684 13.71 103.364 13.41C103.064 13.09 102.684 12.93 102.224 12.93H97.3636V21H92.5336V-1.43051e-06H97.3636V8.07H98.9836C99.4436 8.07 99.8236 7.92 100.124 7.62C100.444 7.3 100.604 6.91 100.604 6.45V-1.43051e-06H105.434V6.45C105.434 7.27 105.304 8.03 105.044 8.73C106.124 9.25 106.994 10.03 107.654 11.07C108.334 12.09 108.674 13.25 108.674 14.55V21ZM127.223 -1.43051e-06H132.053V21H127.223V12.93H120.743V21H115.913V-1.43051e-06H120.743V8.07H127.223V-1.43051e-06ZM155.431 21H150.601L147.361 8.94L144.121 21H139.291L144.901 -1.43051e-06H144.961H149.761H149.821L155.431 21ZM162.67 6.45C162.67 5.55 162.84 4.71 163.18 3.93C163.52 3.15 163.98 2.47 164.56 1.89C165.14 1.31 165.82 0.85 166.6 0.509999C167.38 0.169999 168.22 -1.43051e-06 169.12 -1.43051e-06H172.36C173.26 -1.43051e-06 174.1 0.169999 174.88 0.509999C175.66 0.85 176.34 1.31 176.92 1.89C177.5 2.47 177.96 3.15 178.3 3.93C178.64 4.71 178.81 5.55 178.81 6.45V21H173.98V6.45C173.98 6.01 173.82 5.63 173.5 5.31C173.2 4.99 172.82 4.83 172.36 4.83H169.12C168.66 4.83 168.27 4.99 167.95 5.31C167.65 5.63 167.5 6.01 167.5 6.45V21H162.67V6.45ZM197.359 -1.43051e-06H202.189V21H197.359V12.93H190.879V21H186.049V-1.43051e-06H190.879V8.07H197.359V-1.43051e-06Z" fill="white"/>
</svg>
